<mxfile host="app.diagrams.net" agent="Mozilla/5.0 (Windows NT 10.0; Win64; x64) AppleWebKit/537.36 (KHTML, like Gecko) Chrome/141.0.0.0 Safari/537.36" version="28.2.8">
  <diagram name="Page-1" id="qKNHZ9uKbvDWJJ03EqmD">
    <mxGraphModel dx="703" dy="956" grid="1" gridSize="10" guides="1" tooltips="1" connect="1" arrows="1" fold="1" page="1" pageScale="1" pageWidth="850" pageHeight="1100" math="0" shadow="0">
      <root>
        <mxCell id="0" />
        <mxCell id="1" parent="0" />
        <mxCell id="rmKwsUC2kvYJ2k9RHs3A-1" value="" style="rounded=0;whiteSpace=wrap;html=1;rotation=-180;" vertex="1" parent="1">
          <mxGeometry x="80" y="80" width="520" height="40" as="geometry" />
        </mxCell>
        <mxCell id="rmKwsUC2kvYJ2k9RHs3A-2" value="" style="ellipse;whiteSpace=wrap;html=1;aspect=fixed;" vertex="1" parent="1">
          <mxGeometry x="90" y="85" width="30" height="30" as="geometry" />
        </mxCell>
        <mxCell id="rmKwsUC2kvYJ2k9RHs3A-3" value="WEBSITE" style="text;html=1;whiteSpace=wrap;strokeColor=none;fillColor=none;align=center;verticalAlign=middle;rounded=0;fontSize=22;fontColor=#000099;labelBackgroundColor=#FFFFFF;fontFamily=Times New Roman;" vertex="1" parent="1">
          <mxGeometry x="150" y="85" width="60" height="30" as="geometry" />
        </mxCell>
        <mxCell id="rmKwsUC2kvYJ2k9RHs3A-4" value="" style="rounded=0;whiteSpace=wrap;html=1;" vertex="1" parent="1">
          <mxGeometry x="240" y="90" width="340" height="20" as="geometry" />
        </mxCell>
        <mxCell id="rmKwsUC2kvYJ2k9RHs3A-5" value="" style="rounded=0;whiteSpace=wrap;html=1;rotation=-180;" vertex="1" parent="1">
          <mxGeometry x="80" y="160" width="520" height="40" as="geometry" />
        </mxCell>
        <mxCell id="rmKwsUC2kvYJ2k9RHs3A-6" value="WEBSITE" style="text;html=1;whiteSpace=wrap;strokeColor=none;fillColor=none;align=center;verticalAlign=middle;rounded=0;fontSize=22;fontColor=#000099;labelBackgroundColor=#FFFFFF;fontFamily=Times New Roman;" vertex="1" parent="1">
          <mxGeometry x="510" y="165" width="60" height="30" as="geometry" />
        </mxCell>
        <mxCell id="rmKwsUC2kvYJ2k9RHs3A-7" value="" style="ellipse;whiteSpace=wrap;html=1;aspect=fixed;" vertex="1" parent="1">
          <mxGeometry x="450" y="165" width="30" height="30" as="geometry" />
        </mxCell>
        <mxCell id="rmKwsUC2kvYJ2k9RHs3A-8" value="" style="rounded=0;whiteSpace=wrap;html=1;" vertex="1" parent="1">
          <mxGeometry x="90" y="170" width="340" height="20" as="geometry" />
        </mxCell>
        <mxCell id="rmKwsUC2kvYJ2k9RHs3A-9" value="" style="rounded=0;whiteSpace=wrap;html=1;rotation=-180;" vertex="1" parent="1">
          <mxGeometry x="80" y="240" width="520" height="40" as="geometry" />
        </mxCell>
        <mxCell id="rmKwsUC2kvYJ2k9RHs3A-10" value="" style="rounded=0;whiteSpace=wrap;html=1;" vertex="1" parent="1">
          <mxGeometry x="140" y="250" width="340" height="20" as="geometry" />
        </mxCell>
        <mxCell id="rmKwsUC2kvYJ2k9RHs3A-11" value="" style="ellipse;whiteSpace=wrap;html=1;aspect=fixed;" vertex="1" parent="1">
          <mxGeometry x="90" y="245" width="30" height="30" as="geometry" />
        </mxCell>
        <mxCell id="rmKwsUC2kvYJ2k9RHs3A-12" value="WEBSITE" style="text;html=1;whiteSpace=wrap;strokeColor=none;fillColor=none;align=center;verticalAlign=middle;rounded=0;fontSize=22;fontColor=#000099;labelBackgroundColor=#FFFFFF;fontFamily=Times New Roman;" vertex="1" parent="1">
          <mxGeometry x="510" y="245" width="60" height="30" as="geometry" />
        </mxCell>
        <mxCell id="rmKwsUC2kvYJ2k9RHs3A-13" value="" style="rounded=0;whiteSpace=wrap;html=1;rotation=-180;" vertex="1" parent="1">
          <mxGeometry x="80" y="320" width="520" height="80" as="geometry" />
        </mxCell>
        <mxCell id="rmKwsUC2kvYJ2k9RHs3A-14" value="" style="ellipse;whiteSpace=wrap;html=1;aspect=fixed;" vertex="1" parent="1">
          <mxGeometry x="325" y="360" width="30" height="30" as="geometry" />
        </mxCell>
        <mxCell id="rmKwsUC2kvYJ2k9RHs3A-15" value="WEBSITE" style="text;html=1;whiteSpace=wrap;strokeColor=none;fillColor=none;align=center;verticalAlign=middle;rounded=0;fontSize=22;fontColor=#000099;labelBackgroundColor=#FFFFFF;fontFamily=Times New Roman;" vertex="1" parent="1">
          <mxGeometry x="310" y="330" width="60" height="30" as="geometry" />
        </mxCell>
        <mxCell id="rmKwsUC2kvYJ2k9RHs3A-16" value="" style="rounded=0;whiteSpace=wrap;html=1;" vertex="1" parent="1">
          <mxGeometry x="90" y="340" width="190" height="40" as="geometry" />
        </mxCell>
        <mxCell id="rmKwsUC2kvYJ2k9RHs3A-17" value="" style="rounded=0;whiteSpace=wrap;html=1;" vertex="1" parent="1">
          <mxGeometry x="400" y="340" width="190" height="40" as="geometry" />
        </mxCell>
        <mxCell id="rmKwsUC2kvYJ2k9RHs3A-18" value="" style="rounded=0;whiteSpace=wrap;html=1;rotation=-180;" vertex="1" parent="1">
          <mxGeometry x="80" y="440" width="440" height="80" as="geometry" />
        </mxCell>
        <mxCell id="rmKwsUC2kvYJ2k9RHs3A-19" value="WEBSITE" style="text;html=1;whiteSpace=wrap;strokeColor=none;fillColor=none;align=center;verticalAlign=middle;rounded=0;fontSize=22;fontColor=#000099;labelBackgroundColor=#FFFFFF;fontFamily=Times New Roman;" vertex="1" parent="1">
          <mxGeometry x="110" y="450" width="60" height="30" as="geometry" />
        </mxCell>
        <mxCell id="rmKwsUC2kvYJ2k9RHs3A-20" value="" style="ellipse;whiteSpace=wrap;html=1;aspect=fixed;" vertex="1" parent="1">
          <mxGeometry x="125" y="480" width="30" height="30" as="geometry" />
        </mxCell>
        <mxCell id="rmKwsUC2kvYJ2k9RHs3A-21" value="" style="rounded=0;whiteSpace=wrap;html=1;" vertex="1" parent="1">
          <mxGeometry x="215" y="455" width="285" height="20" as="geometry" />
        </mxCell>
        <mxCell id="rmKwsUC2kvYJ2k9RHs3A-22" value="" style="rounded=0;whiteSpace=wrap;html=1;" vertex="1" parent="1">
          <mxGeometry x="225" y="485" width="265" height="20" as="geometry" />
        </mxCell>
        <mxCell id="rmKwsUC2kvYJ2k9RHs3A-23" style="edgeStyle=none;curved=1;rounded=0;orthogonalLoop=1;jettySize=auto;html=1;exitX=1;exitY=0.5;exitDx=0;exitDy=0;fontSize=12;startSize=8;endSize=8;" edge="1" parent="1" source="rmKwsUC2kvYJ2k9RHs3A-22" target="rmKwsUC2kvYJ2k9RHs3A-22">
          <mxGeometry relative="1" as="geometry" />
        </mxCell>
      </root>
    </mxGraphModel>
  </diagram>
</mxfile>
